<svg height="512" viewBox="0 0 128 128" width="512" xmlns="http://www.w3.org/2000/svg"><path d="m1.75 8.564h124.5v65.506h-124.5z" fill="#4d5680"/><path d="m1.75 74.07h124.5a0 0 0 0 1 0 0v6.938a6 6 0 0 1 -6 6h-112.5a6 6 0 0 1 -6-6v-6.938a0 0 0 0 1 0 0z" fill="#80a3ff"/><path d="m46.844 87.007h34.312v20.182h-34.312z" fill="#f3f5f9"/><path d="m87.689 119.436h-47.378a6.124 6.124 0 0 1 -6.124-6.123 6.124 6.124 0 0 1 6.124-6.124h47.378a6.123 6.123 0 0 1 6.123 6.124 6.123 6.123 0 0 1 -6.123 6.123z" fill="#4d5680"/><circle cx="64" cy="41.317" fill="#f3f5f9" r="20.405" transform="matrix(.94 -.34 .34 .94 -10.234 24.217)"/><path d="m69.013 47.083h-10.027a8.773 8.773 0 0 0 -8.773 8.774v.5a20.4 20.4 0 0 0 27.574 0v-.5a8.774 8.774 0 0 0 -8.774-8.774z" fill="#ffd830"/><path d="m64 40.615a5.17 5.17 0 0 1 -5.17-5.17v-2.037a5.17 5.17 0 0 1 5.17-5.17 5.17 5.17 0 0 1 5.17 5.17v2.037a5.17 5.17 0 0 1 -5.17 5.17z" fill="#ffd9b3"/></svg>