<svg id="Capa_1" enable-background="new 0 0 512 512" height="512" viewBox="0 0 512 512" width="512" xmlns="http://www.w3.org/2000/svg"><g><path d="m370.184 455.875c-3.642.001-7.327-.669-10.886-2.049l-106.699-41.431c-3.388-1.31-7.183-.431-9.655 2.243l-9.799 10.615c-2.865 3.105-7.704 3.3-10.809.432-3.104-2.866-3.297-7.705-.432-10.809l9.801-10.618c6.761-7.317 17.133-9.722 26.422-6.128l106.704 41.433c5.632 2.183 11.913.725 16.001-3.712l6.709-7.261c2.641-2.864 4.012-6.589 3.856-10.482s-1.821-7.493-4.688-10.136l-15.089-13.974c-3.083-2.888-3.241-7.729-.352-10.812 2.889-3.084 7.73-3.242 10.812-.352l3.081 2.886 11.923 11.007c5.87 5.412 9.28 12.789 9.6 20.767.32 7.975-2.486 15.601-7.901 21.472l-6.706 7.258c-5.789 6.285-13.73 9.651-21.893 9.651z" fill="#6cbff8"/><path d="m408.131 338.58-42.683 46.255-118.092-108.973 42.191-45.722c15.45-16.742 14.792-43.512-2.057-58.845-8.315-7.567-18.899-11.096-29.325-10.677-10.516.422-20.871 4.861-28.574 13.208l-84.515 91.587c-8.84 9.579-23.771 10.179-33.35 1.339s-10.179-23.771-1.339-33.35l43.099-46.705c9.968-10.802 9.292-27.64-1.51-37.608s-27.64-9.292-37.608 1.51l-11.633 12.606c-11.285 12.229-30.346 12.994-42.575 1.71s-12.994-30.346-1.71-42.575l53.05-57.489c32.501-35.221 74.714-56.219 118.796-62.687 58.283-8.574 119.818 8.266 166.383 51.235 81.778 75.466 86.923 203.395 11.452 285.181z" fill="#5392f9"/><g fill="#4071f7"><path d="m258.165 160.618c5.374-.216 10.788.626 15.914 2.52-2.147-4.737-5.239-9.106-9.293-12.794-8.232-7.49-18.74-10.949-29.111-10.479-10.461.473-20.781 4.943-28.484 13.291l-84.515 91.587c-4.911 5.322-11.679 7.884-18.35 7.619.67 5.33 3.143 10.463 7.4 14.391 9.579 8.839 24.511 8.24 33.35-1.339l84.515-91.587c7.703-8.348 18.058-12.787 28.574-13.209z"/><path d="m102.734 163.207 11.633-12.606c6.212-6.731 15.09-9.529 23.514-8.271-1.135-4.988-3.728-9.685-7.758-13.403-10.693-9.867-27.442-9.109-37.41 1.693l-11.633 12.606c-7.676 8.319-18.904 11.37-29.111 8.957 1.547 4.721 4.279 9.125 8.189 12.733 12.23 11.285 31.292 10.52 42.576-1.709z"/><path d="m396.679 53.401c-3.811-3.516-7.731-6.84-11.732-10.007 70.219 75.699 70.876 194.931-1.024 272.847l-42.683 46.255 24.208 22.339 42.683-46.255c75.471-81.786 70.326-209.715-11.452-285.179z"/><path d="m346.474 188.247c-3.459 0-6.595-2.362-7.433-5.874-3.749-15.691-11.993-29.764-23.841-40.696l-.435-.398c-11.886-10.816-26.505-17.837-42.255-20.283-4.174-.648-7.033-4.559-6.384-8.733.648-4.175 4.551-7.034 8.733-6.384 18.723 2.908 36.091 11.244 50.225 24.106l.475.434c14.103 13.015 23.904 29.745 28.362 48.399.982 4.11-1.553 8.236-5.662 9.218-.599.142-1.197.211-1.785.211z"/><path d="m308.361 288.484c-1.855 0-3.715-.67-5.186-2.028-3.104-2.866-3.298-7.705-.433-10.81l16.615-18.001c11.112-12.043 18.341-26.923 20.903-43.032.663-4.172 4.587-7.017 8.756-6.354 4.172.664 7.016 4.584 6.353 8.756-3.038 19.1-11.603 36.737-24.769 51.005l-16.615 18.002c-1.509 1.634-3.564 2.462-5.624 2.462z"/><path d="m401.186 203.689c-4.083 0-7.473-3.225-7.638-7.343-1.437-35.782-16.68-68.824-42.922-93.04-10.177-9.391-21.645-17.096-34.086-22.899-23.98-11.195-50.573-14.996-76.908-11.001-30.364 4.595-57.413 18.944-78.227 41.499-2.865 3.106-7.704 3.3-10.809.434-3.105-2.865-3.299-7.704-.434-10.809 22.866-24.779 53.826-41.204 87.177-46.251 29.325-4.447 58.949-.21 85.67 12.264 13.871 6.471 26.653 15.058 37.992 25.52 29.245 26.987 46.232 63.804 47.833 103.669.169 4.221-3.115 7.781-7.337 7.95-.103.005-.208.007-.311.007z"/></g><path d="m338.561 397.549-97.488-89.961c-10.619-9.799-11.284-26.351-1.485-36.97l8.795-9.531c9.799-10.619 26.351-11.284 36.97-1.485l97.488 89.961c10.619 9.799 11.284 26.351 1.485 36.97l-8.795 9.531c-9.799 10.619-26.351 11.284-36.97 1.485z" fill="#ddebfd"/><path d="m382.842 349.562-97.488-89.96 73.204 67.552c10.599 9.781 11.263 26.303 1.482 36.902l-8.861 9.603c-9.781 10.599-26.302 11.263-36.902 1.482l24.284 22.409c10.619 9.799 27.171 9.134 36.97-1.485l8.795-9.531c9.8-10.62 9.135-27.172-1.484-36.972z" fill="#bed9fd"/><path d="m241.307 425.838-20.634-19.041c-2.077-1.916-4.784-2.904-7.602-2.797-2.824.114-5.436 1.321-7.353 3.398l-58.397 63.284c-4.46 4.833-6.771 11.114-6.507 17.684.264 6.571 3.071 12.646 7.904 17.107 4.585 4.23 10.472 6.527 16.673 6.527.337 0 .674-.006 1.012-.02 6.571-.264 12.646-3.071 17.107-7.904l58.397-63.283c1.917-2.078 2.911-4.777 2.797-7.602-.112-2.824-1.319-5.436-3.397-7.353z" fill="#db377e"/></g></svg>