<svg enable-background="new 0 0 100 100" height="512" viewBox="0 0 100 100" width="512" xmlns="http://www.w3.org/2000/svg"><path d="m85.3232117 28.6400318h-70.6464215c-2.3261223 0-4.2118797 1.8856277-4.2118797 4.2118778v47.7373848h79.0701752v-47.7373848c.0000019-2.32625-1.8856869-4.2118778-4.211874-4.2118778z" fill="#304651"/><path d="m14.777207 32.952469h70.445587v43.324406h-70.445587z" fill="#4388b9"/><path d="m89.5350876 91.005806h-79.07018l-2.8670096-3.3069077h84.8042016z" fill="#b0b1b5"/><path d="m45.864903 14.394159h8.570401v35.020218h-8.570401z" fill="#dad7dc" transform="matrix(.707 .707 -.707 .707 37.248 -26.117)"/><path d="m72.9086075 15.4625034-3.8888626 3.8888607-5.2336235-1.0831108-1.0831108-5.2336273 3.8888626-3.8888607c-2.5359116-.4987631-5.2660179.2332478-7.2309074 2.1981382-3.1340485 3.1340504-3.133934 8.2153368.0001183 11.3493872 3.1340485 3.1340504 8.215332 3.1341667 11.3493881.0001163 1.9648894-1.9648895 2.6968993-4.6949958 2.1981353-7.2309036z" fill="#ececec"/><path d="m27.0913944 48.6462402 3.8888588-3.8888588 5.2336292 1.0831108 1.0831108 5.2336273-3.8888626 3.8888588c2.5359077.498764 5.2660141-.2332458 7.2309036-2.1981354 3.1340523-3.1340523 3.133934-8.2153397-.0001144-11.3493881-3.1340523-3.1340523-8.2153397-3.1341667-11.3493881-.0001183-1.9648895 1.9648896-2.6969013 4.694996-2.1981373 7.2309037z" fill="#ececec"/><path d="m45.564697 14.394159h8.570401v35.020218h-8.570401z" fill="#b0b1b5" transform="matrix(-.707 .707 -.707 -.707 107.659 19.215)"/><g fill="#dad7dc"><path d="m27.0913944 15.4625034 3.8888588 3.8888607 5.2336292-1.0831108 1.0831108-5.2336273-3.8888626-3.8888607c2.5359077-.4987631 5.2660141.2332478 7.2309036 2.1981382 3.1340523 3.1340504 3.133934 8.2153368-.0001144 11.3493872-3.1340523 3.1340504-8.2153397 3.1341667-11.3493881.0001163-1.9648895-1.9648895-2.6969013-4.6949958-2.1981373-7.2309036z"/><path d="m72.9086075 48.6462402-3.8888626-3.8888588-5.2336235 1.0831108-1.0831108 5.2336273 3.8888626 3.8888588c-2.5359116.498764-5.2660179-.2332458-7.2309074-2.1981354-3.1340485-3.1340523-3.133934-8.2153397.0001183-11.3493881 3.1340485-3.1340523 8.215332-3.1341667 11.3493881-.0001183 1.9648894 1.9648896 2.6968993 4.694996 2.1981353 7.2309037z"/><path d="m91.976181 80.3894196h-83.9522266c-2.0737524 0-3.754869 1.6811142-3.754869 3.7546005 0 2.0740204 1.6811166 3.7551346 3.754869 3.7551346h83.9522266c2.0737534 0 3.7547302-1.6811142 3.7547302-3.7551346.0000001-2.0734863-1.6809768-3.7546005-3.7547302-3.7546005z"/></g><path d="m56.2787361 85.4695663h-12.5574684c-.6631737 0-1.2057686-.5425949-1.2057686-1.2057724v-.2394028c0-.6631699.5425949-1.2057648 1.2057686-1.2057648h12.5574684c.6631699 0 1.2057648.5425949 1.2057648 1.2057648v.2394028c0 .6631775-.5425949 1.2057724-1.2057648 1.2057724z" fill="#ececec"/></svg>