<svg id="Repair_Service" height="512" viewBox="0 0 64 64" width="512" xmlns="http://www.w3.org/2000/svg" data-name="Repair Service"><path d="m41 48v11a2 2 0 0 1 -2 2h-32a2 2 0 0 1 -2-2v-54a2 2 0 0 1 2-2h32a2 2 0 0 1 2 2v10" fill="#e0e0e2"/><path d="m41 48v11a2 2 0 0 1 -2 2h-32a2 2 0 0 1 -2-2v-54a2 2 0 0 1 2-2h32a2 2 0 0 1 2 2v10" fill="#e0e0e2"/><path d="m41 53h-36v-45h36v7z" fill="#57a4ff"/><rect fill="#ffc740" height="32" rx="2" width="36" x="23" y="15"/><path d="m29.1 22.1 4 4 2.121-.707.708-2.121-4-4a5.991 5.991 0 0 1 8.578 5.486 3.932 3.932 0 0 0 1.164 2.842l9.815 9.815a3 3 0 0 1 0 4.242 3 3 0 0 1 -4.243 0l-9.807-9.807a4.064 4.064 0 0 0 -2.9-1.167 5.99 5.99 0 0 1 -5.436-8.583z" fill="#d8d7da"/><path d="m47.657 18.343a3 3 0 0 1 3 3v11a0 0 0 0 1 0 0h-6a0 0 0 0 1 0 0v-11a3 3 0 0 1 3-3z" fill="#8cc63e" transform="matrix(.707 .707 -.707 .707 31.879 -26.276)"/><path d="m37.757 38.071 6.364-6.364-2.828-2.828-6.364 6.364h-1.414l-3.536 4.949 2.829 2.829 4.949-3.536z" fill="#e9e9ea"/><path d="m21 56h4v2h-4z"/><path d="m57 14h-15v-9a3.009 3.009 0 0 0 -3-3h-32a3.009 3.009 0 0 0 -3 3v54a3.009 3.009 0 0 0 3 3h32a3.009 3.009 0 0 0 3-3v-11h15a3.009 3.009 0 0 0 3-3v-28a3.009 3.009 0 0 0 -3-3zm-51-9a1 1 0 0 1 1-1h32a1 1 0 0 1 1 1v2h-34zm34 54a1 1 0 0 1 -1 1h-32a1 1 0 0 1 -1-1v-5h34zm0-7h-34v-43h34v5h-15a3.009 3.009 0 0 0 -3 3v28a3.009 3.009 0 0 0 3 3h15zm18-7a1 1 0 0 1 -1 1h-32a1 1 0 0 1 -1-1v-28a1 1 0 0 1 1-1h32a1 1 0 0 1 1 1z"/><path d="m54.49 22.51a3.973 3.973 0 0 0 -1.173-2.827 4.02 4.02 0 0 0 -5.665 0l-6 6a2.88 2.88 0 0 1 -.146-.917 6.943 6.943 0 0 0 -2.045-5.041 7.014 7.014 0 0 0 -7.961-1.347 1 1 0 0 0 -.274 1.61l3.561 3.552-.357 1.06-1.06.355-3.563-3.562a1 1 0 0 0 -1.609.275 7.077 7.077 0 0 0 .636 7.124 6.966 6.966 0 0 0 5.657 2.888 3.2 3.2 0 0 1 1.947.639l-1.923 1.924h-1a1 1 0 0 0 -.814.419l-3.535 4.949a1 1 0 0 0 .106 1.288l2.828 2.829a1 1 0 0 0 1.288.106l4.95-3.534a1 1 0 0 0 .419-.814v-1l1.952-1.951 5.824 5.833a4.005 4.005 0 1 0 5.667-5.668l-5.122-5.122 6.242-6.234a3.982 3.982 0 0 0 1.17-2.834zm-19.966 7.17a4.975 4.975 0 0 1 -4.074-2.067 5.032 5.032 0 0 1 -.884-3.632l2.827 2.826a1 1 0 0 0 1.024.241l2.121-.71a1 1 0 0 0 .63-.63l.71-2.121a1 1 0 0 0 -.242-1.025l-2.826-2.82a5.022 5.022 0 0 1 4.243 1.4 4.961 4.961 0 0 1 1.457 3.6 4.943 4.943 0 0 0 .628 2.458l-.255.254a1 1 0 0 0 -.005 1.41l-2.024 2.036a5.077 5.077 0 0 0 -3.33-1.22zm2.526 7.684a1 1 0 0 0 -.293.707v.9l-3.841 2.744-1.631-1.631 2.744-3.841h.9a1 1 0 0 0 .707-.293l5.657-5.657 1.414 1.414zm13.74 3.583a2.066 2.066 0 0 1 -2.842.007l-5.825-5.834 2-2a1 1 0 0 0 1.409-.005l.123-.123 5.123 5.123a2.014 2.014 0 0 1 .012 2.832zm1.11-17.014-6.949 6.94-.124.127-2.827-2.827.136-.135 6.928-6.938a2.016 2.016 0 0 1 2.839 0 2 2 0 0 1 0 2.835z"/></svg>